<svg xmlns="http://www.w3.org/2000/svg" data-name="Layer 2" viewBox="0 0 97 121.25" x="0px" y="0px"><g data-name="In review"><g><path d="m96.61.39c-.52-.52-1.36-.52-1.88,0L28.61,66.51l1.88,1.88L96.61,2.26c.52-.52.52-1.36,0-1.88Z"/><path d="m25.89,65.2s-.13-.05-.18,0l-.46.46s-.05.12,0,.17l.99,1.24-.37.37s-.03.05-.04.08l-.05.77-1.45,1.45s-.03.04-.03.07l-.18,1.01-1.36,1.36-1.22-.5s-.1,0-.13.03l-1.44,1.4s-.04.06-.04.09c0,.03.01.07.04.09l1.01,1.01-1.48,1.48-.45-.45s-.05-.03-.08-.04l-.45-.04s-.07,0-.1.04l-6.75,6.75-.21-.21s-.13-.05-.18,0l-5.24,5.24-.09-.09s-.13-.05-.18,0l-2.83,2.83s-.05.13,0,.18l.7.7-1.06,1.06-.38-.38s-.05-.04-.08-.04l-.48-.02s-.07.01-.09.04l-1.47,1.47s-.04.06-.04.09v.49s.02.06.04.09l.54.54-.59.59s-.05.13,0,.18l2.18,2.19s.13.05.18,0l.59-.59.54.54s.05.04.09.04h.49s.07,0,.09-.03l1.47-1.47s.04-.06.04-.09l-.02-.48s-.01-.06-.04-.08l-.38-.38,1.06-1.06.7.7s.13.05.18,0l2.83-2.83s.05-.13,0-.18l-.09-.09,5.24-5.24s.05-.13,0-.18l-.21-.21,6.75-6.75s.04-.06.04-.1l-.04-.44s-.02-.06-.04-.08l-.45-.45,1.48-1.48,1.01,1.01s.06.04.09.04c.03,0,.07-.01.09-.04l1.4-1.44s.04-.09.03-.13l-.5-1.23,1.36-1.36,1.01-.19s.05-.02.07-.03l1.45-1.45.77-.05s.06-.02.08-.04l.37-.37,1.24.99s.12.04.17,0l.46-.46s.05-.13,0-.18l-5.91-5.91Z"/></g></g><text x="0" y="112" fill="#000000" font-size="5px" font-weight="bold" font-family="'Helvetica Neue', Helvetica, Arial-Unicode, Arial, Sans-serif">Created by Carlos von Dessauer</text><text x="0" y="117" fill="#000000" font-size="5px" font-weight="bold" font-family="'Helvetica Neue', Helvetica, Arial-Unicode, Arial, Sans-serif">from the Noun Project</text></svg>